<svg xmlns="http://www.w3.org/2000/svg" xmlns:xlink="http://www.w3.org/1999/xlink" fill="none" version="1.1" width="14" height="14" viewBox="0 0 14 14"><defs><clipPath id="master_svg0_144_10378"><rect x="0" y="0" width="14" height="14" rx="0"/></clipPath></defs><g clip-path="url(#master_svg0_144_10378)"><g transform="matrix(-1,-8.742277657347586e-8,8.742277657347586e-8,-1,18.666502988310846,21.0000008159388)"><path d="M13.245731953125,11.495812C13.473531953125,11.268006,13.473531953125,10.898659,13.245731953125,10.670854C13.017921953125,10.4430487,12.648581953125,10.4430487,12.420771953125,10.670854C12.420771953125,10.670854,13.245731953125,11.495812,13.245731953125,11.495812C13.245731953125,11.495812,13.245731953125,11.495812,13.245731953125,11.495812ZM9.916584953125,14C9.916584953125,14,9.504105953125,13.58752,9.504105953125,13.58752C9.276300653125,13.81533,9.276300653125,14.18467,9.504105953125,14.41248C9.504105953125,14.41248,9.916584953125,14,9.916584953125,14C9.916584953125,14,9.916584953125,14,9.916584953125,14ZM12.420771953125,17.32914C12.648581953125,17.55693,13.017921953125,17.55693,13.245731953125,17.32914C13.473531953125,17.10135,13.473531953125,16.73199,13.245731953125,16.50419C13.245731953125,16.50419,12.420771953125,17.32914,12.420771953125,17.32914C12.420771953125,17.32914,12.420771953125,17.32914,12.420771953125,17.32914ZM12.420771953125,10.670854C12.420771953125,10.670854,9.504105953125,13.58752,9.504105953125,13.58752C9.504105953125,13.58752,10.329063953125,14.41248,10.329063953125,14.41248C10.329063953125,14.41248,13.245731953125,11.495812,13.245731953125,11.495812C13.245731953125,11.495812,12.420771953125,10.670854,12.420771953125,10.670854C12.420771953125,10.670854,12.420771953125,10.670854,12.420771953125,10.670854ZM9.504105953125,14.41248C9.504105953125,14.41248,12.420771953125,17.32914,12.420771953125,17.32914C12.420771953125,17.32914,13.245731953125,16.50419,13.245731953125,16.50419C13.245731953125,16.50419,10.329063953125,13.58752,10.329063953125,13.58752C10.329063953125,13.58752,9.504105953125,14.41248,9.504105953125,14.41248C9.504105953125,14.41248,9.504105953125,14.41248,9.504105953125,14.41248Z" fill="#B1B4C3" fill-opacity="1"/></g></g></svg>