<svg xmlns="http://www.w3.org/2000/svg" xmlns:xlink="http://www.w3.org/1999/xlink" fill="none" version="1.1" width="24" height="24" viewBox="0 0 24 24"><defs><clipPath id="master_svg0_323_18477"><rect x="24" y="0" width="24" height="24" rx="0"/></clipPath></defs><g transform="matrix(0,1,-1,0,24,-24)" clip-path="url(#master_svg0_323_18477)"><g><path d="M28,3L44,3C44.5523,3,45,3.447715,45,4L45,11L27,11L27,4C27,3.447715,27.447715,3,28,3ZM27,13L45,13L45,20C45,20.5523,44.5523,21,44,21L28,21C27.447715,21,27,20.5523,27,20L27,13ZM31,16L31,18L34,18L34,16L31,16ZM31,6L31,8L34,8L34,6L31,6Z" fill="#6D737C" fill-opacity="1"/></g></g></svg>