<?xml version="1.0" standalone="no"?><!DOCTYPE svg PUBLIC "-//W3C//DTD SVG 1.1//EN" "http://www.w3.org/Graphics/SVG/1.1/DTD/svg11.dtd"><svg t="1701334256162" class="icon" viewBox="0 0 1024 1024" version="1.1" xmlns="http://www.w3.org/2000/svg" p-id="29459" xmlns:xlink="http://www.w3.org/1999/xlink" width="64" height="64"><path d="M757.76 64.256H267.6224a136.2944 136.2944 0 0 0-136.2944 136.2944V864.256a88.7296 88.7296 0 0 0 138.496 73.4208l193.0752-131.072a66.1504 66.1504 0 0 1 72.3456-1.2288l223.0784 140.5952a88.6784 88.6784 0 0 0 135.9872-75.0592V200.5504A136.2944 136.2944 0 0 0 757.76 64.256zM663.1936 424.96L608.256 478.5664a18.2272 18.2272 0 0 0-5.12 16.2304l12.9536 75.6224a18.432 18.432 0 0 1-26.6752 19.4048l-67.8912-35.84a18.3808 18.3808 0 0 0-17.1008 0l-67.8912 35.84a18.3808 18.3808 0 0 1-26.9312-19.4048l12.9536-75.6224a18.2784 18.2784 0 0 0-5.12-16.2304L362.4448 424.96a18.3808 18.3808 0 0 1 10.24-31.3856l75.8272-10.9568a18.5344 18.5344 0 0 0 13.8752-10.24l33.9456-68.7616a18.3808 18.3808 0 0 1 32.9728 0L563.2 372.5312a18.3808 18.3808 0 0 0 13.824 10.24l75.9296 11.008a18.432 18.432 0 0 1 10.24 31.1808z" fill="#0077ff" p-id="29460"></path></svg>