<svg xmlns="http://www.w3.org/2000/svg" xmlns:xlink="http://www.w3.org/1999/xlink" fill="none" version="1.1" width="20" height="20" viewBox="0 0 20 20"><g><g></g><g transform="matrix(0.7071067690849304,0.7071067690849304,-0.7071067690849304,0.7071067690849304,5.5857865486791525,-7.627416816776076)"><path d="M13,2.9289474487414062Q12.901509,2.9289474487414062,12.80491,2.948162189941406Q12.708311,2.967376889941406,12.617316,3.0050678899414063Q12.526322,3.0427591899414064,12.44443,3.0974781899414063Q12.362537,3.1521971899414063,12.292893,3.2218401899414064Q12.223249,3.2914841899414062,12.16853,3.3733771899414062Q12.113811,3.4552701899414062,12.0761205,3.5462641899414065Q12.0384294,3.6372581899414063,12.0192147,3.733857189941406Q12,3.8304561899414065,12,3.9289521899414064Q12,4.027442189941406,12.0192147,4.124042189941406Q12.0384294,4.220632189941407,12.0761205,4.311632189941406Q12.113811,4.402622189941406,12.16853,4.484522189941407Q12.223249,4.566412189941406,12.292893,4.636052189941406Q12.362537,4.705702189941406,12.44443,4.760412189941406Q12.526322,4.815132189941407,12.617316,4.852822189941406Q12.708311,4.890522189941406,12.80491,4.909732189941407Q12.901509,4.928952189941406,13,4.928952189941406L19.99997,4.928952189941406L19.99997,11.928962189941407Q19.99997,12.027452189941407,20.01918,12.124052189941406Q20.0384,12.220652189941406,20.07609,12.311642189941406Q20.11378,12.402642189941407,20.1685,12.484532189941406Q20.223219999999998,12.566422189941406,20.292859999999997,12.636072189941407Q20.3625,12.705712189941407,20.4444,12.760432189941406Q20.52629,12.815152189941406,20.61728,12.852842189941406Q20.708280000000002,12.890532189941407,20.80488,12.909742189941406Q20.90148,12.928932189941406,20.999969999999998,12.928932189941406Q21.09846,12.928932189941406,21.195059999999998,12.909742189941406Q21.29166,12.890532189941407,21.382649999999998,12.852842189941406Q21.47365,12.815152189941406,21.55554,12.760432189941406Q21.637430000000002,12.705712189941407,21.707079999999998,12.636072189941407Q21.776719999999997,12.566422189941406,21.83144,12.484532189941406Q21.88616,12.402642189941407,21.92385,12.311642189941406Q21.96154,12.220652189941406,21.98075,12.124052189941406Q21.999969999999998,12.027452189941407,21.999969999999998,11.928962189941407L21.999969999999998,3.936632189941406L22,3.9289521899414064Q22,3.8304561899414065,21.98078,3.733857189941406Q21.961570000000002,3.6372581899414063,21.92388,3.5462641899414065Q21.88619,3.4552701899414062,21.83147,3.3733771899414062Q21.77675,3.2914841899414062,21.7071,3.2218401899414064Q21.63746,3.1521971899414063,21.55557,3.0974781899414063Q21.47368,3.0427591899414064,21.38268,3.0050678899414063Q21.29169,2.967376889941406,21.19509,2.948162189941406Q21.098489999999998,2.9289474487414062,21,2.9289474487414062L13,2.9289474487414062Z" fill-rule="evenodd" fill="#B1B4C3" fill-opacity="1"/></g></g></svg>