<svg xmlns="http://www.w3.org/2000/svg" xmlns:xlink="http://www.w3.org/1999/xlink" fill="none" version="1.1" width="100" height="47" viewBox="0 0 100 47"><g><path d="M18.18,16.128L17.604,11.736L16.344,10.44L24.048,10.44L24.768,16.128L32.94,16.128L32.436,19.8L25.236,19.8L25.812,24.156L32.328,20.916L31.644,25.704L26.352,28.332L26.964,32.904L29.448,32.904L30.78,31.608L30.132,36.288L20.916,36.288L20.232,31.392L13.284,34.848L13.968,30.024L19.692,27.18L18.684,19.8L15.228,19.8L15.732,16.128L18.18,16.128ZM3.384,32.976L4.104,27.9L1.152,28.512L1.692,24.732L4.608,24.084L5.472,17.928L2.628,17.928L3.132,14.508L5.94,14.508L6.372,11.592L5.508,10.44L12.888,10.44L12.312,14.508L15.192,14.508L14.688,17.928L11.844,17.928L11.16,22.68L14.112,22.032L13.608,25.812L10.62,26.46L9.576,33.948Q9.396,34.992,8.586,35.658Q7.776,36.324,6.768,36.324L0.144,36.324L3.384,32.976ZM26.028,15.264L25.416,11.16L31.248,11.16L31.86,15.264L26.028,15.264ZM50.796,24.444L51.228,21.42L44.208,21.42L44.676,18L51.696,18L52.128,14.796L45.756,14.94L46.26,11.52L65.988,11.016L65.52,14.436L58.752,14.616L58.284,18L65.808,18L65.34,21.42L57.816,21.42L57.384,24.444L64.224,24.444L62.64,35.64L42.66,35.64L44.244,24.444L50.796,24.444ZM33.336,36.324L36.72,26.136L42.66,26.136L39.276,36.324L33.336,36.324ZM36.936,24.768L36.468,18.612L42.408,18.612L42.876,24.768L36.936,24.768ZM37.98,17.244L37.512,11.088L43.452,11.088L43.92,17.244L37.98,17.244ZM57.024,32.328L57.672,27.864L50.004,27.864L49.356,32.328L57.024,32.328ZM86.112,17.928L84.168,17.928L84.672,14.508L86.976,14.508L87.696,11.628L86.616,10.404L93.456,10.404L92.448,14.508L99.036,14.508L96.3,33.948Q96.12,34.992,95.328,35.658Q94.536,36.324,93.492,36.324L87.768,36.324L90.936,33.012L93.06,17.928L91.584,17.928L87.048,36.324L81.576,36.324L86.112,17.928ZM80.784,27.504L80.568,36.324L75.096,36.324L75.096,35.352L66.528,36.324L67.032,32.976L70.488,22.032L68.544,22.032L69.048,18.612L82.728,18.612L82.224,22.032L75.96,22.032L72.684,32.292L75.204,32.004L75.312,27.504L80.784,27.504ZM82.98,11.772L82.512,15.192L70.2,15.192L70.668,11.772L82.98,11.772Z" fill="#FFFFFF" fill-opacity="1"/></g></svg>