<svg xmlns="http://www.w3.org/2000/svg" xmlns:xlink="http://www.w3.org/1999/xlink" fill="none" version="1.1" width="67" height="47" viewBox="0 0 67 47"><g><path d="M16.344,27.18L11.376,28.476L10.62,33.948Q10.44,34.992,9.648,35.658Q8.856,36.324,7.812,36.324L1.008,36.324L4.212,33.012L4.608,30.276L0.72,31.284L1.26,27.504L5.148,26.496L5.904,21.024L2.16,21.024L2.664,17.604L6.408,17.604L6.696,15.372L3.564,15.876L4.068,12.456L16.668,10.404L16.164,13.824L13.392,14.292L12.924,17.604L19.296,17.604L18.216,11.412L17.352,10.404L24.192,10.404L25.452,17.604L32.4,17.604L31.896,21.024L26.028,21.024L26.748,25.092L31.68,22.716L31.032,27.18L27.396,28.908L28.008,32.292L29.304,32.292L30.888,30.924L30.096,36.324L22.572,36.324L21.744,31.608L16.02,34.344L16.668,29.88L21.06,27.792L19.872,21.024L12.42,21.024L11.916,24.696L16.884,23.4L16.344,27.18ZM32.292,15.876L26.136,15.876L25.452,11.088L31.608,11.088L32.292,15.876ZM58.608,13.824L65.556,13.824L62.82,33.264Q62.676,34.308,61.884,35.01Q61.092,35.712,60.048,35.712L53.964,35.712L57.168,32.292L57.492,29.916L51.984,29.916L50.4,21.708L56.556,21.708L57.78,28.044L59.292,17.244L56.664,17.244L55.116,19.98L49.644,19.98L47.448,35.712L33.768,35.712L36.936,13.14L39.24,13.14L40.212,11.376L39.348,10.404L47.556,10.404L46.08,13.14L50.616,13.14L50.112,16.776L53.208,11.376L52.344,10.404L60.552,10.404L58.608,13.824ZM41.364,22.716L43.452,22.716L44.316,16.56L42.228,16.56L41.364,22.716ZM42.12,32.292L42.984,26.136L40.896,26.136L40.032,32.292L42.12,32.292Z" fill="#FFFFFF" fill-opacity="1"/></g></svg>