<svg xmlns="http://www.w3.org/2000/svg" xmlns:xlink="http://www.w3.org/1999/xlink" fill="none" version="1.1" width="100" height="47" viewBox="0 0 100 47"><g><path d="M22.356,13.464L32.796,13.464L29.916,33.876Q29.772,34.92,28.962,35.586Q28.152,36.252,27.108,36.252L21.24,36.252L24.552,32.904L26.784,16.92L20.844,16.92L19.476,20.016L13.5,20.016L17.46,11.412L16.596,10.44L23.724,10.44L22.356,13.464ZM2.664,18.648L7.596,11.34L6.732,10.44L14.328,10.44L8.784,18.648L13.644,18.648L8.208,26.136L12.6,26.136L12.132,29.556L1.152,29.556L1.62,26.136L4.752,22.068L2.196,22.068L2.664,18.648ZM16.956,30.24L15.84,22.068L21.204,22.068L22.32,30.24L16.956,30.24ZM11.376,34.992L0.288,35.676L0.756,32.256L11.844,31.644L11.376,34.992ZM57.816,19.296L65.268,19.296L63.216,33.948Q63.072,34.992,62.262,35.658Q61.452,36.324,60.444,36.324L54.324,36.324L57.528,32.976L58.968,22.716L58.284,22.716L53.712,36.324L49.608,36.324L54.18,22.716L53.172,22.716L48.564,36.324L44.46,36.324L49.068,22.716L47.7,22.716L48.168,19.296L57.96,14.508L48.96,14.508L49.428,11.088L65.736,11.088L65.088,15.876L57.816,19.296ZM44.82,33.66L33.588,35.712L34.092,32.292L36.504,31.86L37.872,22.032L35.532,22.032L36,18.612L38.376,18.612L39.24,12.456L38.052,11.088L45.612,11.088L44.568,18.612L46.944,18.612L46.476,22.032L44.064,22.032L42.876,30.708L45.324,30.24L44.82,33.66ZM87.444,20.016L86.22,20.34L84.636,31.608L95.904,31.608L97.272,30.24L96.516,35.712L78.696,35.712L80.676,21.672L79.164,22.032L79.632,18.612L81.144,18.252L81.72,14.184L80.964,13.14L87.228,13.14L86.688,16.884L87.912,16.596L88.596,11.772L87.588,10.404L93.816,10.404L93.132,15.3L99.144,13.824L97.488,25.74Q97.308,26.784,96.588,27.486Q95.868,28.188,94.968,28.188L91.512,28.188L92.628,26.604L93.78,18.468L92.664,18.756L91.152,29.556L86.112,29.556L87.444,20.016ZM76.932,33.66L66.42,35.712L66.96,31.716L69.588,31.212L70.848,22.176L68.292,22.176L68.796,18.612L71.352,18.612L72.216,12.456L71.172,11.088L77.832,11.088L76.752,18.612L79.02,18.612L78.516,22.176L76.248,22.176L75.132,30.132L77.472,29.664L76.932,33.66Z" fill="#FFFFFF" fill-opacity="1"/></g></svg>