<svg xmlns="http://www.w3.org/2000/svg" xmlns:xlink="http://www.w3.org/1999/xlink" fill="none" version="1.1" width="180" height="25" viewBox="0 0 180 25"><g><path d="M1.44,11.352L2.808,8.016L1.68,8.016L1.992,5.688L3.768,5.688L4.176,4.68L3.696,3.96L7.584,3.96L6.888,5.688L10.848,5.688L10.536,8.016L5.952,8.016L4.584,11.496L5.664,11.496L6.048,8.736L9.264,8.736L8.856,11.496L9.816,11.496L9.48,13.872L8.52,13.872L8.328,15.192L9.672,15L9.336,17.4L7.992,17.592L7.488,21.192L3.6,21.192L4.032,18.12L0.192,18.648L0.528,16.248L4.392,15.72L4.656,13.872L1.08,13.872L1.44,11.352ZM12.744,18.528L13.176,15.336L10.344,15.336L10.656,13.056L20.52,13.056L20.208,15.336L17.328,15.336L16.896,18.528L20.232,18.528L19.92,20.808L9.096,20.808L9.408,18.528L12.744,18.528ZM21.888,4.464L21.552,6.912L18.912,9L21.864,12.312L17.472,12.312L16.392,11.088L15.072,12.312L10.32,12.312L16.992,6.696L11.52,6.696L11.808,4.464L21.888,4.464ZM26.664,18.912L28.128,18.912L29.784,6.696L24.144,6.696L24.456,4.416L33.792,4.416L31.632,19.848Q31.512,20.64,31.116,20.904Q30.72,21.168,29.976,21.168L24.552,21.168L26.664,18.912ZM36.408,18.912L37.896,18.912L39.552,6.696L34.152,6.696L34.464,4.416L43.56,4.416L41.4,19.848Q41.28,20.64,40.884,20.904Q40.488,21.168,39.744,21.168L34.296,21.168L36.408,18.912ZM28.296,12.816L26.688,17.592L22.656,17.592L24.432,12.816L28.296,12.816ZM37.8,12.816L36.312,17.616L32.64,17.616L34.2,12.816L37.8,12.816ZM28.104,7.608L28.368,11.88L24.528,11.88L24.024,7.608L28.104,7.608ZM37.608,7.608L37.92,11.88L34.32,11.88L34.008,7.608L37.608,7.608Z" fill="#000000" fill-opacity="1"/></g></svg>