<svg xmlns="http://www.w3.org/2000/svg" xmlns:xlink="http://www.w3.org/1999/xlink" fill="none" version="1.1" width="180" height="25" viewBox="0 0 180 25"><g><path d="M20.136,8.976L18.768,18.792L19.656,18.792L20.688,17.88L20.232,21.168L14.784,21.168L16.248,10.8L2.256,10.8L2.496,8.976L20.136,8.976ZM8.544,3.984L8.304,4.44L21.312,4.44L21.048,6.216L7.344,6.216L7.056,6.792L20.304,6.792L20.088,8.4L6.192,8.4L6.12,8.568L2.16,8.568L4.296,4.656L3.696,3.984L8.544,3.984ZM5.928,19.464L6.096,18.288L2.328,18.288L2.544,16.656L14.088,16.656L13.872,18.288L9.72,18.288L9.552,19.464L14.4,19.464L14.16,21.192L0.744,21.192L0.984,19.464L5.928,19.464ZM13.968,11.472L13.704,13.224L11.64,14.088L15.144,16.176L11.304,16.176L8.928,14.832L5.16,16.152L0.984,16.152L7.824,13.272L2.76,13.272L3.024,11.472L13.968,11.472ZM26.664,18.912L28.128,18.912L29.784,6.696L24.144,6.696L24.456,4.416L33.792,4.416L31.632,19.848Q31.512,20.64,31.116,20.904Q30.72,21.168,29.976,21.168L24.552,21.168L26.664,18.912ZM36.408,18.912L37.896,18.912L39.552,6.696L34.152,6.696L34.464,4.416L43.56,4.416L41.4,19.848Q41.28,20.64,40.884,20.904Q40.488,21.168,39.744,21.168L34.296,21.168L36.408,18.912ZM28.296,12.816L26.688,17.592L22.656,17.592L24.432,12.816L28.296,12.816ZM37.8,12.816L36.312,17.616L32.64,17.616L34.2,12.816L37.8,12.816ZM28.104,7.608L28.368,11.88L24.528,11.88L24.024,7.608L28.104,7.608ZM37.608,7.608L37.92,11.88L34.32,11.88L34.008,7.608L37.608,7.608Z" fill="#000000" fill-opacity="1"/></g></svg>