<?xml version="1.0" standalone="no"?><!DOCTYPE svg PUBLIC "-//W3C//DTD SVG 1.1//EN" "http://www.w3.org/Graphics/SVG/1.1/DTD/svg11.dtd"><svg t="1701334175855" class="icon" viewBox="0 0 1024 1024" version="1.1" xmlns="http://www.w3.org/2000/svg" p-id="21622" xmlns:xlink="http://www.w3.org/1999/xlink" width="64" height="64"><path d="M53.248 508.928v338.944c0 66.56 53.248 119.808 119.808 119.808h677.888c66.56 0 119.808-53.248 119.808-119.808V508.928H53.248zM970.752 372.736v-54.272c0-66.56-53.248-119.808-119.808-119.808H173.056c-66.56 0-119.808 53.248-119.808 119.808v54.272h917.504z" fill="#0077ff" p-id="21623"></path><path d="M729.088 285.696c-33.792 0-62.464-27.648-62.464-62.464v-122.88c0-33.792 27.648-62.464 62.464-62.464 33.792 0 62.464 27.648 62.464 62.464v123.904c-1.024 33.792-28.672 61.44-62.464 61.44zM294.912 285.696c-33.792 0-62.464-27.648-62.464-62.464v-122.88c0-33.792 27.648-62.464 62.464-62.464 33.792 0 62.464 27.648 62.464 62.464v123.904c0 33.792-27.648 61.44-62.464 61.44z" fill="#0077ff" p-id="21624"></path><path d="M482.304 819.2c-12.288 11.264-31.744 11.264-44.032-1.024L354.304 727.04c-11.264-12.288-11.264-31.744 1.024-44.032 12.288-11.264 31.744-11.264 44.032 1.024l84.992 91.136c11.264 12.288 11.264 31.744-2.048 44.032z" fill="#0077ff" p-id="21625"></path><path d="M701.44 612.352c11.264 13.312 9.216 32.768-4.096 44.032L490.496 826.368c-13.312 11.264-32.768 9.216-44.032-4.096-11.264-13.312-9.216-32.768 4.096-44.032l206.848-171.008c13.312-10.24 32.768-8.192 44.032 5.12z" fill="#0077ff" p-id="21626"></path></svg>