<?xml version="1.0" standalone="no"?><!DOCTYPE svg PUBLIC "-//W3C//DTD SVG 1.1//EN" "http://www.w3.org/Graphics/SVG/1.1/DTD/svg11.dtd"><svg t="1701333952409" class="icon" viewBox="0 0 1024 1024" version="1.1" xmlns="http://www.w3.org/2000/svg" p-id="11319" xmlns:xlink="http://www.w3.org/1999/xlink" width="64" height="64"><path d="M504.546027 2.721956L31.344375 441.585082a11.725351 11.725351 0 0 0 7.495849 20.938126h68.886435a11.725351 11.725351 0 0 1 11.725351 11.72535v465.998937a83.752505 83.752505 0 0 0 83.752505 83.752505h199.037827a11.725351 11.725351 0 0 0 11.725351-11.725351v-340.537684a11.725351 11.725351 0 0 1 11.725351-11.725351h185.009283a11.725351 11.725351 0 0 1 11.725351 11.725351v340.537684a11.725351 11.725351 0 0 0 11.72535 11.725351h190.620701a83.752505 83.752505 0 0 0 83.752505-83.752505V474.081053a11.725351 11.725351 0 0 1 11.725351-11.72535h64.908191a11.725351 11.725351 0 0 0 7.495849-20.938126L519.537725 2.721956a11.725351 11.725351 0 0 0-14.991698 0z" p-id="11320" fill="#b1b4c3"></path></svg>