<svg xmlns="http://www.w3.org/2000/svg" xmlns:xlink="http://www.w3.org/1999/xlink" fill="none" version="1.1" width="24" height="24" viewBox="0 0 24 24"><defs><clipPath id="master_svg0_323_18468"><rect x="0" y="0" width="24" height="24" rx="0"/></clipPath></defs><g clip-path="url(#master_svg0_323_18468)"><g><path d="M20.4127,15.38255220703125L20.4127,13.16033220703125L3.5873,13.16033220703125L3.5873,15.38255220703125L2.793651,15.38255220703125C2.3553290000000002,15.38255220703125,2,15.02722220703125,2,14.58890220703125L2,6.49366320703125C2,6.05534120703125,2.35533,5.70001172262525,2.793651,5.70001220703125L21.2063,5.70001220703125C21.6447,5.70001172262525,22,6.05534120703125,22,6.49366320703125L22,14.58890220703125C22,15.02722220703125,21.6447,15.38255220703125,21.2063,15.38255220703125L20.4127,15.38255220703125ZM5.25397,14.27144220703125L18.746,14.27144220703125C19.0529,14.27144220703125,19.3016,14.52017220703125,19.3016,14.82699220703125C19.3016,15.13382220703125,19.0529,15.38255220703125,18.746,15.38255220703125L5.25397,15.38255220703125C4.94714,15.38255220703125,4.69841,15.13382220703125,4.69841,14.82699220703125C4.69841,14.52017220703125,4.94714,14.27144220703125,5.25397,14.27144220703125ZM5.25397,16.49371220703125C5.56079,16.49371220703125,5.80952,16.74241220703125,5.80952,17.04921220703125L5.80952,18.47781220703125C5.80952,18.784612207031252,5.56079,19.03331220703125,5.25397,19.03331220703125C4.94714,19.03331220703125,4.69841,18.784612207031252,4.69841,18.47781220703125L4.69841,17.04921220703125C4.69841,16.74241220703125,4.94714,16.49371220703125,5.25397,16.49371220703125ZM15.4127,16.49371220703125C15.7195,16.49371220703125,15.9683,16.74241220703125,15.9683,17.04921220703125L15.9683,18.47781220703125C15.9683,18.784612207031252,15.7195,19.03331220703125,15.4127,19.03331220703125C15.1059,19.03331220703125,14.8571,18.784612207031252,14.8571,18.47781220703125L14.8571,17.04921220703125C14.8571,16.74241220703125,15.1059,16.49371220703125,15.4127,16.49371220703125ZM18.746,16.49371220703125C19.0529,16.49371220703125,19.3016,16.74241220703125,19.3016,17.04921220703125L19.3016,18.47781220703125C19.3016,18.784612207031252,19.0529,19.03331220703125,18.746,19.03331220703125C18.4392,19.03331220703125,18.1905,18.784612207031252,18.1905,18.47781220703125L18.1905,17.04921220703125C18.1905,16.74241220703125,18.4392,16.49371220703125,18.746,16.49371220703125ZM11.92064,16.49371220703125C12.2275,16.49371220703125,12.4762,16.74241220703125,12.4762,17.04921220703125L12.4762,18.47781220703125C12.4762,18.784612207031252,12.2275,19.03331220703125,11.92064,19.03331220703125C11.61381,19.03331220703125,11.36508,18.784612207031252,11.36508,18.47781220703125L11.36508,17.04921220703125C11.36508,16.74241220703125,11.61381,16.49371220703125,11.92064,16.49371220703125ZM8.587299999999999,16.49371220703125C8.89413,16.49371220703125,9.142859999999999,16.74241220703125,9.142859999999999,17.04921220703125L9.142859999999999,18.47781220703125C9.14256,18.784412207031252,8.89391,19.03281220703125,8.587299999999999,19.03281220703125C8.28069,19.03281220703125,8.03205,18.784412207031252,8.031749999999999,18.47781220703125L8.031749999999999,17.04921220703125C8.031749999999999,16.74241220703125,8.28048,16.49371220703125,8.587299999999999,16.49371220703125Z" fill="#6D737C" fill-opacity="1"/></g></g></svg>