<svg xmlns="http://www.w3.org/2000/svg" xmlns:xlink="http://www.w3.org/1999/xlink" fill="none" version="1.1" width="24" height="24" viewBox="0 0 24 24"><defs><clipPath id="master_svg0_323_18471"><rect x="0" y="0" width="24" height="24" rx="0"/></clipPath></defs><g clip-path="url(#master_svg0_323_18471)"><g><path d="M12,13C13.657,13,15,14.343,15,16C15,16.85,14.647,17.616,14.08,18.162L12.17,20L15,20L15,22L9,22L9,20.276L12.693,16.721C12.883,16.538,13,16.283,13,16C13,15.448,12.552,15,12,15C11.448,15,11,15.448,11,16L9,16C9,14.343,10.343,13,12,13ZM18,13L18,17L20,17L20,13L22,13L22,22L20,22L20,19L16,19L16,13L18,13ZM4,12C4,14.527,5.170999999999999,16.78,7,18.246L7,20.662C4.011,18.933,2,15.702,2,12L4,12ZM12,2C17.185000000000002,2,21.449,5.947,21.95,11L19.938,11C19.446,7.054,16.08,4,12,4C9.536,4,7.332,5.114,5.865,6.865L8,9L2,9L2,3L4.447,5.446C6.28,3.3360000000000003,8.984,2,12,2Z" fill="#6D737C" fill-opacity="1"/></g></g></svg>