<svg xmlns="http://www.w3.org/2000/svg" xmlns:xlink="http://www.w3.org/1999/xlink" fill="none" version="1.1" width="24" height="24" viewBox="0 0 24 24"><defs><clipPath id="master_svg0_323_18495"><rect x="0" y="0" width="24" height="24" rx="0"/></clipPath></defs><g clip-path="url(#master_svg0_323_18495)"><g><path d="M22.560048828125,8.03999755859375C19.200048828125,6.55999755859375,15.840048828125,5.15999755859375,12.480048828125,3.67999755859375C12.120048828125,3.51999745859375,11.800048828125,3.51999745859375,11.440048828125,3.67999755859375C8.160048828125,5.15999755859375,4.800048828125,6.55999755859375,1.520048828125,7.95999755859375C1.1600488281249999,8.07999755859375,0.800048828125,8.23999755859375,0.800048828125,8.71999755859375C0.800048828125,9.19999755859375,1.1600488281249999,9.35999755859375,1.520048828125,9.47999755859375C4.600048828125,10.79999755859375,7.680048828125,12.07999755859375,10.760048828125,13.47999755859375C11.600048828125,13.91999755859375,12.360048828125,13.95999755859375,13.200048828125,13.47999755859375C13.600048828125,13.19999755859375,14.120048828125,13.07999755859375,14.600048828125,12.83999755859375C16.560048828124998,11.99999755859375,18.440048828125,11.15999755859375,20.480048828125,10.31999755859375L20.480048828125,17.39999755859375C20.480048828125,17.83999755859375,20.640048828125,17.95999755859375,21.040048828125,17.95999755859375C21.440048828125,17.95999755859375,21.600048828125,17.87999755859375,21.600048828125,17.39999755859375C21.600048828125,15.27999755859375,21.680048828125,13.11999755859375,21.520048828125,11.03999755859375C21.520048828125,10.19999755859375,21.640048828125,9.63999755859375,22.560048828125,9.439997558593749C22.920048828125,9.35999755859375,23.200048828125,9.15999755859375,23.200048828125,8.71999755859375C23.200048828125,8.279997558593749,22.920048828125,8.15999755859375,22.560048828125,8.03999755859375Z" fill="#6D737C" fill-opacity="1"/></g><g><path d="M19.080037890625,12.8000271953125C19.080037890625,12.3200271953125,18.920037890625,12.3200271953125,18.600037890625,12.4400271953125C16.720037890625,13.280027195312499,14.840047890625,14.0400301953125,13.000047890625,14.8800301953125C12.280037890625,15.1600301953125,11.720047890625,15.1600301953125,11.040037890625001,14.8800301953125C9.160037890625,14.0400301953125,7.240047890625,13.280027195312499,5.360042890625,12.4400271953125C5.000042890625,12.2800268953125,4.960042990625,12.3600274653125,4.960042990625,12.7200271953125L4.960042990625,15.5200301953125C4.760042890625,17.4000301953125,5.720042890625,18.6800301953125,7.3200378906250005,19.3600301953125C10.560037890625,20.8400301953125,13.760037890625,20.760030195312503,16.920037890625,19.2000301953125C18.400037890625,18.4400301953125,19.240037890625,17.3200301953125,19.080037890625,15.4800301953125C19.000037890625002,14.600030195312499,19.080037890625,13.6800301953125,19.080037890625,12.8000271953125Z" fill="#6D737C" fill-opacity="1"/></g></g></svg>