<svg xmlns="http://www.w3.org/2000/svg" xmlns:xlink="http://www.w3.org/1999/xlink" fill="none" version="1.1" width="24" height="24" viewBox="0 0 24 24"><defs><clipPath id="master_svg0_323_18483"><rect x="0" y="0" width="24" height="24" rx="0"/></clipPath></defs><g clip-path="url(#master_svg0_323_18483)"><g><path d="M17.3934,4.33897802734375C18.0044,4.33897802734375,18.525,4.12725802734375,18.9478,3.70380802734375C19.3719,3.28036802734375,19.583,2.75977802734375,19.583,2.14939802734375C19.583,1.53901802734375,19.3713,1.02646802734375,18.9485,0.61910402734375C18.525,0.21241002734375,18.0038,0.00872802734375,17.3941,0.00872802734375C16.783,0.00872802734375,16.2624,0.21241002734375,15.8397,0.61910402734375C15.4162,1.02646802734375,15.2045,1.53901802734375,15.2045,2.14939802734375C15.2045,2.75977802734375,15.4162,3.28103802734375,15.839,3.70380802734375C16.2624,4.12725802734375,16.7837,4.33897802734375,17.3934,4.33897802734375ZM5.82507,4.33897802734375C6.43611,4.33897802734375,6.95738,4.12725802734375,7.37948,3.70380802734375C7.80293,3.28036802734375,8.01465,2.75977802734375,8.01465,2.14939802734375C8.01465,1.53901802734375,7.80293,1.02646802734375,7.38015,0.61910402734375C6.95671,0.21241002734375,6.43544,0.00872815585975,5.82574,0.00872815585975C5.21469,0.00872815585975,4.69342,0.21241002734375,4.271319999999999,0.61910402734375C3.84788,1.02646802734375,3.6361600000000003,1.53030802734375,3.6361600000000003,2.14135802734375C3.6361600000000003,2.75106802734375,3.84721,3.27232802734375,4.27065,3.69576802734375C4.69409,4.12725802734375,5.21536,4.33897802734375,5.82507,4.33897802734375ZM21.9595,13.44632802734375L19.526,6.79655802734375C19.1515,5.86927802734375,18.46,5.40495802734375,17.4343,5.40495802734375L17.3371,5.40495802734375C16.3194,5.40495802734375,15.6192,5.86927802734375,15.2447,6.79655802734375L12.8112,13.44632802734375C12.6571,13.87782802734375,13.0069,14.31742802734375,13.5033,14.31742802734375L15.7499,14.31742802734375L15.7499,21.41472802734375C15.7499,21.79732802734375,16.0916,22.11492802734375,16.5143,22.11492802734375L18.2403,22.11492802734375C18.6637,22.11492802734375,19.0054,21.80532802734375,19.0054,21.41472802734375L19.0054,14.31742802734375L21.252,14.31742802734375C21.7726,14.31742802734375,22.123,13.87782802734375,21.9595,13.44632802734375ZM7.45385,5.40495802734375L4.189579999999999,5.40495802734375C3.61136,5.40495802734375,3.0988100000000003,5.60863802734375,2.659286,6.00796802734375C2.2197620000000002,6.40594802734375,2,6.87830802734375,2,7.39889802734375L2,12.12782802734375C2,12.50972802734375,2.341703,12.82732802734375,2.765147,12.82732802734375L3.62812,12.82732802734375L3.62812,21.41412802734375C3.62812,21.79662802734375,3.96982,22.10622802734375,4.38522,22.10622802734375L7.24146,22.10622802734375C7.6649,22.10622802734375,7.99857,21.79662802734375,7.99857,21.41412802734375L7.99857,12.83602802734375L8.86154,12.83602802734375C9.28431,12.83602802734375,9.62668,12.52712802734375,9.62668,12.13582802734375L9.62668,7.40760802734375C9.62668,6.87830802734375,9.40692,6.41398802734375,8.9674,6.01533802734375C8.56418,5.61819802734375,8.0191,5.39847802734375,7.45318,5.40495802734375L7.45385,5.40495802734375Z" fill="#6D737C" fill-opacity="1"/></g></g></svg>