<svg xmlns="http://www.w3.org/2000/svg" xmlns:xlink="http://www.w3.org/1999/xlink" fill="none" version="1.1" width="27.78580093383789" height="22.47209930419922" viewBox="0 0 27.78580093383789 22.47209930419922"><g><path d="M18.8057,6.79953C19.122,6.79953,19.4378,6.82909,19.7517,6.85865C18.9062,2.93207,14.6633,0,9.83153,0C4.42797,0.0189204,0,3.67115,0,8.30902C0,10.9827,1.47816,13.1852,3.92776,14.8951C3.92776,14.8951,2.93799,17.8236,2.93799,17.8236C2.93799,17.8236,6.37973,16.1178,6.37973,16.1178C7.61252,16.3597,8.60229,16.6003,9.8197,16.6003C10.1354,16.6003,10.4364,16.5867,10.7362,16.5589C10.5411,15.8929,10.44,15.203,10.4358,14.509C10.45,10.2572,14.1347,6.79953,18.8075,6.79953C18.8075,6.79953,18.8057,6.79953,18.8057,6.79953C18.8057,6.79953,18.8057,6.79953,18.8057,6.79953ZM13.5169,4.15717C14.263,4.15717,14.7491,4.63964,14.7491,5.3805C14.7491,6.10361,14.263,6.60323,13.5169,6.60323C12.7855,6.60323,12.0387,6.11958,12.0387,5.37991C12.0387,4.64023,12.7837,4.15717,13.5169,4.15717C13.5169,4.15717,13.5169,4.15717,13.5169,4.15717ZM6.63516,6.60323C5.90554,6.60323,5.157,6.11958,5.157,5.37991C5.157,4.64023,5.90317,4.15717,6.63516,4.15717C7.36714,4.15717,7.86794,4.63964,7.86794,5.3805C7.86794,6.10361,7.38192,6.60323,6.63516,6.60323C6.63516,6.60323,6.63516,6.60323,6.63516,6.60323ZM27.7835,14.4079C27.7835,10.5109,23.8551,7.32575,19.4236,7.32575C14.7526,7.32575,11.0661,10.5109,11.0661,14.4079C11.0661,18.3185,14.7508,21.4918,19.4236,21.4918C20.3998,21.4918,21.3895,21.2506,22.3799,21.0082C22.3799,21.0082,25.0749,22.4721,25.0749,22.4721C25.0749,22.4721,24.3299,20.0397,24.3299,20.0397C26.3094,18.5479,27.7858,16.5974,27.7858,14.4079C27.7858,14.4079,27.7835,14.4079,27.7835,14.4079C27.7835,14.4079,27.7835,14.4079,27.7835,14.4079ZM16.715,13.1852C16.229,13.1852,15.7252,12.7033,15.7252,12.2037C15.7252,11.7212,16.229,11.2216,16.715,11.2216C17.4618,11.2216,17.9478,11.7058,17.9478,12.2037C17.9478,12.7015,17.4618,13.1852,16.715,13.1852C16.715,13.1852,16.715,13.1852,16.715,13.1852ZM22.1203,13.1852C21.6326,13.1852,21.1448,12.7033,21.1448,12.2037C21.1448,11.7212,21.6308,11.2216,22.1203,11.2216C22.8653,11.2216,23.3531,11.7058,23.3531,12.2037C23.3531,12.7015,22.8653,13.1852,22.1203,13.1852C22.1203,13.1852,22.1203,13.1852,22.1203,13.1852Z" fill="#29CC65" fill-opacity="1"/></g></svg>