<?xml version="1.0" standalone="no"?><!DOCTYPE svg PUBLIC "-//W3C//DTD SVG 1.1//EN" "http://www.w3.org/Graphics/SVG/1.1/DTD/svg11.dtd"><svg t="1716521403573" class="icon" viewBox="0 0 1024 1024" version="1.1" xmlns="http://www.w3.org/2000/svg" p-id="3826" xmlns:xlink="http://www.w3.org/1999/xlink" width="64" height="64"><path d="M397.3 196.8h202.3l57.7-75.1 5.8-11.5v-5.8c0-11.5-5.8-17.3-17.3-23.2 0 0-80.9-17.3-150.2-17.3-69.4 0-150.2 17.3-150.2 17.3-28.9 11.5-5.8 40.5-5.8 40.5l57.7 75.1z m219.6 52H408.8C247 306.5 114.1 485.7 114.1 653.2c0 208 115.6 306.2 398.7 306.2s398.7-98.2 398.7-306.2c0.1-167.5-132.8-346.6-294.6-404.4z m40.4 427.6c11.5 0 23.2 11.5 23.2 23.2 0 11.6-11.5 23.2-23.2 23.2H541.7v80.9c0 11.5-11.5 23.2-23.2 23.2-11.5 0-23.2-11.5-23.2-23.2v-75.1H380c-11.5 0-23.2-11.5-23.2-23.2s11.5-23.2 23.2-23.2h115.6v-63.5H380c-11.5 0-23.2-11.5-23.2-23.2 0-11.6 11.5-23.2 23.2-23.2h121.4v-5.8s-5.8 0-5.8-5.8L403.1 451c-11.5-5.8-11.5-23.2 0-34.7s28.9-5.8 34.7 5.8l80.9 92.4 80.9-92.4c11.5-11.5 23.2-11.5 34.7-5.8 11.5 11.5 11.5 23.2 5.8 34.7l-92.5 109.9c0 5.8-5.8 5.8-11.5 5.8h121.4c11.5 0 23.1 11.5 23.1 23.2 0 11.5-11.5 23.1-23.1 23.1H541.7v63.5l115.6-0.1z" fill="#FFA700" p-id="3827"></path></svg>