<svg xmlns="http://www.w3.org/2000/svg" xmlns:xlink="http://www.w3.org/1999/xlink" fill="none" version="1.1" width="34" height="39" viewBox="0 0 34 39"><defs><clipPath id="master_svg0_254_25929"><rect x="34" y="0" width="39" height="34" rx="0"/></clipPath></defs><g transform="matrix(0,1,-1,0,34,-34)" clip-path="url(#master_svg0_254_25929)"><g><path d="M53.24225,20.108249999999998C53.24225,20.108249999999998,59.9202,13.68225,59.9202,13.68225C60.1632,13.43925,60.559200000000004,13.43925,60.8022,13.68225C61.0452,13.92525,61.0452,14.31225,60.8022,14.555250000000001C60.8022,14.555250000000001,53.68325,21.602249999999998,53.68325,21.602249999999998C53.44025,21.84525,53.04425,21.84525,52.801249999999996,21.602249999999998C52.801249999999996,21.602249999999998,45.68225,14.555250000000001,45.68225,14.555250000000001C45.43925,14.31225,45.43925,13.92525,45.68225,13.68225C45.92525,13.43925,46.32125,13.43925,46.56425,13.68225C46.56425,13.68225,53.24225,20.108249999999998,53.24225,20.108249999999998C53.24225,20.108249999999998,53.24225,20.108249999999998,53.24225,20.108249999999998Z" fill="#FFFFFF" fill-opacity="1"/></g></g></svg>