<svg xmlns="http://www.w3.org/2000/svg" xmlns:xlink="http://www.w3.org/1999/xlink" fill="none" version="1.1" width="21.333328247070312" height="21.33331298828125" viewBox="0 0 21.333328247070312 21.33331298828125"><defs><clipPath id="master_svg0_63_18793"><rect x="7" y="7.33331298828125" width="7.666667461395264" height="7.666667461395264" rx="0"/></clipPath></defs><g><g><rect x="2.9999796748161316" y="4.666666686534882" width="15.333334565162659" height="13.333333611488342" rx="2.0000000596046448" fill-opacity="0" stroke-opacity="1" stroke="#121836" fill="none" stroke-width="1.3333333730697632"/></g><g clip-path="url(#master_svg0_63_18793)"><g><path d="M10.6658490234375,11.70842509765625L12.9049390234375,9.46909109765625C13.029679023437499,9.34433809765625,13.2319190234375,9.34429609765625,13.3567090234375,9.46899809765625C13.4815590234375,9.59375809765625,13.4815990234375,9.79611609765625,13.3567890234375,9.92092109765625L10.6658490234375,12.61186509765625C10.4054990234375,12.87221509765625,9.9833890234375,12.87221509765625,9.7230390234375,12.61186509765625L8.3873460234375,11.27616509765625C8.2626140234375,11.15143509765625,8.2626140234375,10.94920509765625,8.3873460234375,10.82447509765625C8.5120780234375,10.69974509765625,8.714309023437501,10.69974509765625,8.8390410234375,10.82447509765625L9.7230090234375,11.70844509765625C9.9833690234375,11.96880509765625,10.4054990234375,11.96879509765625,10.6658490234375,11.70842509765625" fill="#0077FF" fill-opacity="1"/><path d="M10.9015490234375,12.84756509765625L13.592489023437501,10.15662309765625Q13.783749023437501,9.96536409765625,13.7836990234375,9.69488409765625Q13.783659023437501,9.42440409765625,13.5923290234375,9.23321259765625Q13.4010890234375,9.04211009765625,13.1307390234375,9.04216509765625Q12.860379023437499,9.04222109765625,12.669219023437499,9.23340122765625L10.4301290234375,11.47273509765625Q10.3324990234375,11.57037509765625,10.1944290234375,11.57037509765625Q10.0563490234375,11.57038509765625,9.9587190234375,11.47274509765625L9.0747430234375,10.58877509765625Q8.8835630234375,10.39759509765625,8.6131930234375,10.39759509765625Q8.3428240234375,10.39759509765625,8.1516439934375,10.58877509765625Q7.9604640234375,10.77995509765625,7.9604640234375,11.05032509765625Q7.9604640234375,11.32069509765625,8.1516439434375,11.511875097656251L9.4873390234375,12.84756509765625Q9.7802290234375,13.14045509765625,10.1944390234375,13.14045509765625Q10.6086590234375,13.14045509765625,10.9015490234375,12.84756509765625ZM10.7093990234375,12.09690509765625Q10.4809490234375,12.23703509765625,10.1944490234375,12.23704509765625Q9.9079990234375,12.237055097656249,9.6795690234375,12.09698509765625L9.9587390234375,12.37616509765625Q10.1944390234375,12.61186509765625,10.430149023437501,12.37616509765625L10.7093990234375,12.09690509765625Z" fill-rule="evenodd" fill="#0077FF" fill-opacity="1"/></g></g><g><rect x="6.33331298828125" y="2.66668701171875" width="1.3333333730697632" height="2.6666667461395264" rx="0.6666666865348816" fill="#121836" fill-opacity="1"/></g><g><rect x="13.66668701171875" y="2.66668701171875" width="1.3333333730697632" height="2.6666667461395264" rx="0.6666666865348816" fill="#121836" fill-opacity="1"/></g></g></svg>