<svg xmlns="http://www.w3.org/2000/svg" xmlns:xlink="http://www.w3.org/1999/xlink" fill="none" version="1.1" width="22" height="22" viewBox="0 0 22 22"><g><g style="opacity:0;"><rect x="0" y="0" width="22" height="22" rx="0" fill="#000000" fill-opacity="1"/></g><g><path d="M20,10.5C20,10.79857,19.7557,11.0429,19.4571,11.0429L11.0429,11.0429L11.0429,19.4571C11.0429,19.7557,10.79857,20,10.5,20C10.20143,20,9.95714,19.7557,9.95714,19.4571L9.95714,11.0429L1.5428570000000001,11.0429C1.244286,11.0429,1,10.79857,1,10.5C1,10.20143,1.244286,9.95714,1.5428570000000001,9.95714L9.95714,9.95714L9.95714,1.5428570000000001C9.95714,1.244286,10.20143,1,10.5,1C10.79857,1,11.0429,1.244286,11.0429,1.5428570000000001L11.0429,9.95714L19.4571,9.95714C19.7557,9.95714,20,10.20143,20,10.5Z" fill="#707070" fill-opacity="1"/></g></g></svg>