<svg xmlns="http://www.w3.org/2000/svg" xmlns:xlink="http://www.w3.org/1999/xlink" fill="none" version="1.1" width="21.33333396911621" height="21.33333396911621" viewBox="0 0 21.33333396911621 21.33333396911621"><defs><clipPath id="master_svg0_63_18811"><rect x="0" y="0" width="21.33333396911621" height="21.33333396911621" rx="0"/></clipPath></defs><g clip-path="url(#master_svg0_63_18811)"><g><path d="M6.6666267216205,7C6.6660872995625,7.55213,7.1139599765625,8,7.6666259765625,8C8.219295976562499,8,8.6671659765625,7.55213,8.6666259765625,7C8.6671659765625,6.447873,8.219295976562499,6,7.6666259765625,6C7.1139599765625,6,6.6660872995625,6.447873,6.6666267216205,7Z" fill="#0077FF" fill-opacity="1"/></g><g><path d="M12.6666267216205,7C12.6660872995625,7.55213,13.1139599765625,8,13.6666259765625,8C14.219295976562499,8,14.6671659765625,7.55213,14.6666259765625,7C14.6671659765625,6.447873,14.219295976562499,6,13.6666259765625,6C13.1139599765625,6,12.6660872995625,6.447873,12.6666267216205,7Z" fill="#0077FF" fill-opacity="1"/></g><g><path d="M10.6667040234375,10.33335701171875C8.8325340234375,10.33335701171875,7.3333740234375,8.87650701171875,7.3333740234375,7.07591301171875C7.3333740234375,6.84674701171875,7.5176290234375,6.66668701171875,7.7521350234375,6.66668701171875C7.9866400234375,6.66668701171875,8.1708950234375,6.84674701171875,8.1708950234375,7.07591301171875C8.1708950234375,8.42635701171875,9.2931740234375,9.51489701171875,10.6667040234375,9.51489701171875C12.0402440234375,9.51489701171875,13.1625240234375,8.41817701171875,13.1625240234375,7.07591301171875C13.1625240234375,6.84674701171875,13.3467740234375,6.66668701171875,13.581284023437501,6.66668701171875C13.8157840234375,6.66668701171875,14.0000440234375,6.84674701171875,14.0000440234375,7.07591301171875C13.991664023437501,8.87650701171875,12.5008740234375,10.33335701171875,10.6667040234375,10.33335701171875" fill="#0077FF" fill-opacity="1"/><path d="M8.1958440234375,9.49915701171875Q9.2218040234375,10.50002701171875,10.6667040234375,10.50001701171875Q12.110244023437499,10.50001701171875,13.1345340234375,9.499057011718751Q14.160104023437501,8.49683701171875,14.1667040234375,7.07591301171875Q14.1667040234375,6.83387601171875,13.9950840234375,6.66616237171875Q13.8250740234375,6.50002001171875,13.581284023437501,6.50002001171875Q13.3374840234375,6.50002001171875,13.1674740234375,6.66616245371875Q12.9958540234375,6.83387601171875,12.9958540234375,7.07591401171875Q12.9958540234375,8.01244701171875,12.3132040234375,8.67955701171875Q11.6289440234375,9.34823701171875,10.6667040234375,9.34823701171875Q9.7029140234375,9.34823701171875,9.0200740234375,8.68248701171875Q8.3375640234375,8.01705701171875,8.3375640234375,7.07591301171875Q8.3375640234375,6.83387601171875,8.1659410234375,6.66616237871875Q7.9959280234375,6.50002001171875,7.7521350234375,6.50002001171875Q7.5083410234375,6.50002001171875,7.3383282734375,6.66616237171875Q7.1667070234375,6.83387601171875,7.1667080234375,7.07591401171875Q7.1667070234375,8.49519701171875,8.1958440234375,9.49915701171875ZM12.901564023437501,9.26065701171875Q11.9744240234375,10.16668701171875,10.6667040234375,10.16668701171875Q9.357464023437501,10.16668701171875,8.4286140234375,9.260557011718749Q7.5000410234375,8.35469701171875,7.5000410234375,7.07591401171875Q7.5000410234375,6.95930701171875,7.5583010234375,6.89875701171875Q7.6212310234375,6.83335401171875,7.7521350234375,6.83335401171875Q8.0042290234375,6.83335401171875,8.0042290234375,7.07591301171875Q8.0042280234375,8.15761701171875,8.7873740234375,8.92115701171875Q9.5673040234375,9.68156701171875,10.6667040234375,9.68156701171875Q11.7647740234375,9.68156701171875,12.5461740234375,8.91795701171875Q13.329184023437499,8.15277701171875,13.329184023437499,7.07591401171875Q13.329184023437499,6.83335401171875,13.581284023437501,6.83335401171875Q13.6892440234375,6.83335401171875,13.762114023437501,6.90456301171875Q13.8333740234375,6.97420101171875,13.8333740234375,7.07591301171875Q13.8274140234375,8.35587701171875,12.901564023437501,9.26065701171875Z" fill-rule="evenodd" fill="#0077FF" fill-opacity="1"/></g><g><path d="M16.4921740234375,18.00001298828125L4.8412540234375,18.00001298828125C4.0077040234375,18.00001298828125,3.3333740234375,17.32561298828125,3.3333740234375,16.49211298828125L3.3333740234375,16.454612988281248L4.1669200234375,4.82245298828125C4.1762860234375,3.99827698828125,4.8506140234375,3.33331298828125,5.674794023437499,3.33331298828125L15.6585740234375,3.33331298828125C16.4827740234375,3.33331298828125,17.1571740234375,3.99827698828125,17.1664740234375,4.82245298828125L18.0000740234375,16.47341298828125L18.0000740234375,16.49211298828125C18.0000740234375,17.31631298828125,17.3256740234375,18.00001298828125,16.4921740234375,18.00001298828125ZM4.2793080234375,16.50151298828125C4.2886730234375,16.81051298828125,4.5415440234375,17.05401298828125,4.8506140234375,17.05401298828125L16.5015740234375,17.05401298828125C16.8105740234375,17.05401298828125,17.0634740234375,16.80121298828125,17.0728740234375,16.50151298828125L16.2299740234375,4.85992298828125L16.2299740234375,4.84119298828125C16.2299740234375,4.52275298828125,15.9770740234375,4.26988098828125,15.6585740234375,4.26988098828125L5.674794023437499,4.26988098828125C5.3563640234375,4.26988098828125,5.1034840234375,4.52275298828125,5.1034840234375,4.84119298828125L5.1034840234375,4.8786529882812495L4.2793080234375,16.50151298828125" fill="#121836" fill-opacity="1"/><path d="M17.676774023437503,17.672712988281248Q18.1666740234375,17.18071298828125,18.1666740234375,16.49211298828125L18.1666740234375,16.46741298828125L17.3330740234375,4.81544298828125Q17.323474023437498,4.13224098828125,16.8351740234375,3.65020498828125Q16.3453740234375,3.16664598828125,15.6585740234375,3.16664598828125L5.674794023437499,3.16664598828125Q4.9880840234375,3.16664598828125,4.4982140234375,3.65020498828125Q4.0098970234374995,4.13223798828125,4.0003290234375,4.81543298828125L3.1667070234375,16.44871298828125L3.1667070234375,16.49211298828125Q3.1667070234375,17.18631298828125,3.6568810234375,17.67651298828125Q4.1470540234375,18.16661298828125,4.8412540234375,18.16661298828125L16.4921740234375,18.16661298828125Q17.184974023437498,18.16661298828125,17.676774023437503,17.672712988281248ZM17.8333740234375,16.47931298828125L17.8333740234375,16.49211298828125Q17.8333740234375,17.043012988281248,17.4405740234375,17.43751298828125Q17.0464740234375,17.83331298828125,16.4921740234375,17.83331298828125L4.8412540234375,17.83331298828125Q4.2851250234375,17.83331298828125,3.8925830234375,17.44081298828125Q3.5000410234375,17.04821298828125,3.5000410234375,16.49211298828125L3.5000410234375,16.460612988281248L4.3335240234375,4.82936298828125L4.3335740234374995,4.82435298828125Q4.3398240234375,4.27494398828125,4.7323840234375005,3.8874299882812497Q5.1248940234375,3.49997998828125,5.674794023437499,3.49997998828125L15.6585740234375,3.49997998828125Q16.2084740234375,3.49997998828125,16.601074023437498,3.8874299882812497Q16.9935740234375,4.27494598828125,16.9998740234375,4.82435298828125L16.9998740234375,4.82935298828125L17.8333740234375,16.47931298828125ZM4.9368240234375005,4.87274298828125L4.1130590234375,16.489712988281248L4.2793080234375,16.50151298828125L4.1127180234375,16.50651298828125Q4.1217890234375,16.80591298828125,4.3367840234375,17.01351298828125Q4.5512740234375,17.22071298828125,4.8506140234375,17.22071298828125L16.5015740234375,17.22071298828125Q16.7997740234375,17.22071298828125,17.0160740234375,17.009312988281252Q17.230274023437502,16.80001298828125,17.2393740234375,16.50671298828125L17.2396740234375,16.49801298828125L16.396574023437502,4.85390298828125L16.396574023437502,4.84119298828125Q16.396574023437502,4.53332298828125,16.1815740234375,4.31827098828125Q15.9664740234375,4.10321498828125,15.6585740234375,4.10321498828125L5.674794023437499,4.10321498828125Q5.3669340234375,4.10321498828125,5.1518740234375,4.31827098828125Q4.9368240234375005,4.53332298828125,4.9368240234375005,4.84119298828125L4.9368240234375005,4.87274298828125ZM4.4461840234375,16.50441298828125Q4.4617940234375,16.88741298828125,4.8506140234375,16.88741298828125L16.5015740234375,16.88741298828125Q16.8898740234375,16.88741298828125,16.9059740234375,16.50451298828125L16.0632740234375,4.86594298828125L16.0632740234375,4.84119298828125Q16.0632740234375,4.4365529882812496,15.6585740234375,4.4365529882812496L5.674794023437499,4.4365529882812496Q5.2701540234375,4.4365529882812496,5.2701540234375,4.84119298828125L5.2701540234375,4.88455298828125L4.4461840234375,16.50441298828125Z" fill-rule="evenodd" fill="#121836" fill-opacity="1"/></g></g></svg>