<svg xmlns="http://www.w3.org/2000/svg" xmlns:xlink="http://www.w3.org/1999/xlink" fill="none" version="1.1" width="21.33333396911621" height="21.33333396911621" viewBox="0 0 21.33333396911621 21.33333396911621"><defs><clipPath id="master_svg0_63_18796"><rect x="0" y="0" width="21.33333396911621" height="21.33333396911621" rx="0"/></clipPath></defs><g clip-path="url(#master_svg0_63_18796)"><g><path d="M11.2283946484375,2.90606689453125C6.8835046484374995,2.90606689453125,3.3587646484375,6.18665689453125,3.3587646484375,10.24473689453125C3.3587646484375,12.43969689453125,4.4017246484375,14.41186689453125,6.0183246484375,15.76536689453125C5.7078046484375005,16.606766894531248,5.6864646484375,17.47196689453125,5.8192046484375,18.02666689453125C5.885574648437499,18.31586689453125,6.1510646484375,18.49126689453125,6.4189146484375,18.49126689453125C6.4852846484375,18.49126689453125,6.5516546484375,18.46996689453125,6.618024648437499,18.446166894531252C7.1489846484375,18.26846689453125,8.0141746484375,17.98166689453125,8.523804648437501,17.870166894531252Q9.2989146484375,17.69246689453125,11.2070646484375,17.58106689453125C15.5519646484375,17.58106689453125,19.0766646484375,14.30046689453125,19.0766646484375,10.24473689453125C19.0766646484375,6.18902689453125,15.5732646484375,2.90606689453125,11.2283946484375,2.90606689453125ZM11.2283946484375,16.272566894531252L11.1406946484375,16.272566894531252C10.9415846484375,16.293966894531252,9.1021746484375,16.405366894531248,8.258324648437501,16.58306689453125C7.9264646484375,16.64946689453125,7.5258746484375,16.760866894531247,7.1063246484375,16.91496689453125C7.1276546484375,16.692166894531248,7.1940246484375,16.47166689453125,7.284094648437501,16.22756689453125L7.5946146484375,15.34106689453125L6.862174648437501,14.74366689453125C5.4873546484375,13.59166689453125,4.6885446484374995,11.97273689453125,4.6885446484374995,10.26606689453125C4.6885446484374995,6.94043689453125,7.6135846484375,4.25954689453125,11.2283946484375,4.25954689453125C14.8408646484375,4.25954689453125,17.7682646484375,6.94280689453125,17.7682646484375,10.26606689453125C17.7682646484375,13.58936689453125,14.8408646484375,16.272566894531252,11.2283946484375,16.272566894531252Z" fill="#121836" fill-opacity="1"/></g><g><path d="M13.5111527734375,11.536576972656249C13.2456627734375,11.31375697265625,12.8237427734375,11.33746697265625,12.5795927734375,11.60294697265625C12.2690727734375,11.95849697265625,11.8258127734375,12.15760697265625,11.3375227734375,12.15760697265625C10.8492227734375,12.15760697265625,10.4059627734375,11.95849697265625,10.095442773437501,11.60294697265625C9.8512927734375,11.33746697265625,9.4293727734375,11.29242697265625,9.1638927734375,11.536576972656249C8.8984067734375,11.78071697265625,8.8533697734375,12.20264697265625,9.0975127734375,12.46812697265625C9.6521827734375,13.11049697265625,10.4723327734375,13.46605697265625,11.3375227734375,13.46605697265625C12.1790027734375,13.46605697265625,12.999152773437501,13.11049697265625,13.5775227734375,12.46812697265625C13.821662773437499,12.20264697265625,13.8003327734375,11.78071697265625,13.5111527734375,11.536576972656249ZM9.3298127734375,9.44116697265625L9.3298127734375,8.56175797265625C9.3298127734375,8.16827697265625,9.0121827734375,7.85064697265625,8.6187037734375,7.85064697265625C8.2252227734375,7.85064697265625,7.9075927734375,8.16827697265625,7.9075927734375,8.56175797265625L7.9075927734375,9.44116697265625C7.9075927734375,9.83464697265625,8.2252227734375,10.15227697265625,8.6187037734375,10.15227697265625C9.0121827734375,10.15227697265625,9.3298127734375,9.83227697265625,9.3298127734375,9.44116697265625ZM13.8785527734375,7.85064697265625C13.485072773437501,7.85064697265625,13.1674427734375,8.16827697265625,13.1674427734375,8.56175797265625L13.1674427734375,9.44116697265625C13.1674427734375,9.83464697265625,13.485072773437501,10.15227697265625,13.8785527734375,10.15227697265625C14.2720327734375,10.15227697265625,14.5896627734375,9.83464697265625,14.5896627734375,9.44116697265625L14.5896627734375,8.56175797265625C14.5896627734375,8.16827697265625,14.2720327734375,7.85064697265625,13.8785527734375,7.85064697265625" fill="#0077FF" fill-opacity="1"/></g></g></svg>