<svg xmlns="http://www.w3.org/2000/svg" xmlns:xlink="http://www.w3.org/1999/xlink" fill="none" version="1.1" width="24" height="24" viewBox="0 0 24 24"><defs><clipPath id="master_svg0_323_18465"><rect x="0" y="0" width="24" height="24" rx="0"/></clipPath></defs><g clip-path="url(#master_svg0_323_18465)"><g><path d="M22,2L22,24.2222L19.7778,24.2222L19.7778,15.3333L16.4444,15.3333L16.4444,7.55556C16.4444,4.48731,18.9318,2,22,2ZM8.66667,15.2222L8.66667,24.2222L6.44444,24.2222L6.44444,15.2222C3.8575600000000003,14.693,1.99999973509,12.4175,2,9.77778L2,3.11111L4.22222,3.11111L4.22222,10.88889L6.44444,10.88889L6.44444,3.11111L8.66667,3.11111L8.66667,10.88889L10.88889,10.88889L10.88889,3.11111L13.1111,3.11111L13.1111,9.77778C13.1108,12.4179,11.25323,14.6934,8.66667,15.2222Z" fill="#6D737C" fill-opacity="1"/></g></g></svg>